<?xml version="1.0" encoding="UTF-8"?>
<svg xmlns="http://www.w3.org/2000/svg" version="1.1" viewBox="0 0 864 409.3">
  <defs>
    <style>
      .cls-1 {
        fill: #231f20;
      }
    </style>
  </defs>
  <!-- Generator: Adobe Illustrator 28.7.1, SVG Export Plug-In . SVG Version: 1.2.0 Build 142)  -->
  <g>
    <g id="Layer_1">
      <g>
        <path class="cls-1" d="M-292,145.02l-.13,1.91c-1.14-.15-26.08-3.52-39.52-5.24-1.2-.16-2.41-.32-3.61-.48-9.27-3.96-19.3-5.96-29.14-6.08l-3.67-2.52c-16.36-11.22-33.28-22.83-50.1-33.95-16.55-10.91-33.39-20.7-50.07-29.09-17.35-8.73-33.5-13.83-49.42-15.58-54.01-5.91-109.66-2.7-163.49.4-31.08,1.8-63.24,3.64-94.66,3.71v-2.82c-.05.87-.17,1.71-.5,2.54-.1.26-.23.51-.42.71-.54.55-2.37.72-2.65-.04-.14-.37.3-1.45.38-1.82.06-.28.69-3.77.8-3.79,1.04.03,2.41-.07,2.41,1.31,0,.09,0,.18,0,.27,0,.13,0,.26-.01.38.01-.12.02-.25.02-.37,31.32-.08,63.4-1.92,94.43-3.71,53.98-3.11,109.79-6.32,164.09-.38,16.35,1.8,32.93,7,50.66,15.94,16.8,8.46,33.77,18.32,50.44,29.31,16.86,11.14,33.78,22.75,50.16,33.99l5.46,3.74c1.61,1.12,3.34,1.34,5.34,1.59l.74.1c7.76,1.03,15.53,2.03,23.28,3.03,6.1.78,12.2,1.57,18.3,2.38,2.53.34,5.06.68,7.59,1.02,4.03.55,8.58.83,12.22,2.85.38.21.74.43,1.09.69Z"/>
        <path class="cls-1" d="M-794.77,55.8c2.3.44,4.58.95,6.86,1.43,2.25.48,4.51.95,6.76,1.43,1.22.25,1.25.23,1.52-1.02.3-1.4.55-2.82.91-4.21.21-.82-.06-1.15-.85-1.31-4.64-.96-9.28-1.95-13.91-2.95-.78-.17-1.1.1-1.24.85-.28,1.47-.58,2.95-.94,4.41-.21.84.02,1.21.89,1.38Z"/>
        <path class="cls-1" d="M-798,49.97c-1.68-.36-3.28-.69-4.86-1.03-.25,1.16-.46,2.15-.69,3.28,1.66.35,3.25.69,4.86,1.03.23-1.09.47-2.23.69-3.28Z"/>
        <path class="cls-1" d="M-797.89,54.64c.54.22,1.14.27,1.73.4.41-1.96.8-3.77,1.2-5.69-.6-.13-1.15-.32-1.69-.33-.29,0-.78.29-.85.53-.37,1.42-.67,2.86-.91,4.31-.04.24.27.68.52.78Z"/>
        <path class="cls-1" d="M-810.05,50.51c.56.09,1.12.11,1.68.2.41.07.82.2,1.23.3.11-.48.22-.97.33-1.45.08-.35.15-.71.21-1-1.08-.23-2.01-.41-2.94-.63-.81-.19-1.63.22-1.79.93-.18.74.41,1.51,1.29,1.65Z"/>
        <path class="cls-1" d="M-804.27,51.94c.23-1.11.44-2.1.65-3.07-.84-.18-1.61-.34-2.39-.51-.22,1.06-.43,2.04-.65,3.07.83.18,1.59.34,2.39.51Z"/>
        <path class="cls-1" d="M-872.98,180.6h-.04c-.01.11-.02.21-.03.32l.07-.32Z"/>
        <path class="cls-1" d="M-838.2,250.43c-5.68,14.46-10.35,16.84-22.09,17.85h38.28c-9.04-.8-15.22-1.41-14.34-13.02-.82-1.52-1.45-3.13-1.85-4.83Z"/>
        <path class="cls-1" d="M-512.39,227.66h39.53c14.56,46.9,48.7,60.91,77.81,60.91,9.17,0,17.79-1.44,25.16-3.6l-.18-.9c-4.66,1.26-10.42,2.16-16.71,2.16-24.08,0-56.42-12.75-72.06-62.7l-26.6-83.56h-.9l-30.37,96.85c-7.74,24.55-11.42,29.46-23.33,31.08,0,0,0,0,0,0,0,0,0,0,0,0-4.21-4.02-8.21-8.83-11.89-14.55-8.44-13.3-15.64-22.1-31.09-24.08,52.83-6.47,50.5-86.97-7-86.8h-38.27c8.08,1.08,13.47,2.7,13.47,17.44v90.93c0,14.73-5.39,16.35-13.47,17.43h41.33c-7.91-1.08-13.48-2.7-13.48-17.43v-21.03h10.43c7.36,0,13.65,10.07,22.64,26.05,14.2,25.34,39.53,33.07,62.35,33.07,10.43,0,20.31-1.62,28.39-3.96l-.17-.71c-4.68,1.26-10.43,2.16-16.9,2.16-14.27,0-31.3-4.38-45.93-18.14h-3.85s.02,0,.03,0h3.82s0,0,0,0h34.42c-12.21-1.08-19.22-1.8-10.6-29.83l3.42-10.78ZM-492.26,163.32l19.04,62.72h-38.64l19.6-62.72ZM-600.45,228.2v-69c0-13.3,2.7-15.09,10.07-15.09h.36c40.61,0,40.43,84.1,0,84.1h-10.43Z"/>
        <path class="cls-1" d="M-299.81,205.19c0-43.85-32.7-65.59-65.59-65.59s-65.59,21.74-65.59,65.59,32.7,65.59,65.59,65.59,65.59-21.92,65.59-65.59ZM-414.63,205.19c0-42.95,24.61-64.33,49.24-64.33s49.24,21.38,49.24,64.33-24.61,64.34-49.24,64.34-49.24-21.57-49.24-64.34Z"/>
        <path class="cls-1" d="M-226.07,143.85c.15.11.28.23.4.36.13.11.25.25.36.4.65.84.98,1.94.98,3.27,0,1.83-.62,4.12-1.84,6.84-.48,1.07-1.04,2.19-1.71,3.39-.79,1.4-1.7,2.91-2.75,4.49l-31.62,48.16h.18l-.18.18,26.05,44.92c14.74,25.16,40.08,33.07,62.9,33.07,10.25,0,20.12-1.62,28.03-3.96l-.35-.71c-4.68,1.26-10.43,2.16-16.71,2.16-18.51,0-41.69-7.36-58.22-33.07-11.32-17.43-21.74-35.57-32.52-53.37l24.61-37.38c.96-1.48,1.89-2.81,2.81-4.08.84-1.15,1.65-2.24,2.45-3.22,7.63-9.47,14.06-12.23,20.98-12.83h-29.11c1.77,0,3.19.25,4.28.78.36.17.7.36.99.59Z"/>
        <path class="cls-1" d="M-250.21,268.27h-41.33c.44-.06.86-.12,1.28-.18,7.37-1.11,12.19-3.31,12.19-17.25v-90.93c0-5.11-.64-8.64-1.83-11.11-.98-2.06-2.32-3.4-3.97-4.29-2.11-1.17-4.71-1.64-7.67-2.04h41.33c-4.94.68-8.98,1.57-11.3,5.73-.53.97-.98,2.11-1.32,3.45-.56,2.17-.86,4.86-.86,8.26v90.93c0,14.73,5.57,16.35,13.48,17.43Z"/>
        <path class="cls-1" d="M-139.56,266.11c-1.15.19-2.36.33-3.62.41-1.08.08-2.18.13-3.33.13h-6.47c-15.46,0-16.53-1.79-16.53-15.09v-48.7h23.53c.25,0,.5.01.74.02.24.01.47.02.7.05h.01c.35.04.68.08,1.02.13,0,0,0,0,0,0,9.18,1.41,10.2,10.72,11.19,16.69v-35.4c-1.03,6.37-2.09,16-12.27,16.81,0,0,0,0,0,0-.24.02-.47.04-.7.06-.23.01-.45.02-.69.02h-23.53v-57.15h20.85c27.66,0,30.9,23,32.88,28.94l-5.22-30.56h-76.37c8.09,1.08,13.48,2.7,13.48,17.44v90.93c0,14.73-5.39,16.35-13.48,17.43h78.54v-.18l5.21-30.37c-1.8,5.39-4.64,24.88-25.93,28.38Z"/>
        <path class="cls-1" d="M-950.39,139.35c-2.25,2.64-3.31,5.39-3.4,8.83,1.32-.94,2.66-1.83,4.03-2.68.39-1.36,1.08-2.56,2.13-3.79,1.77-2.07,3.54-4.17,5.31-6.24h-4.77c-1.1,1.28-2.19,2.58-3.29,3.88Z"/>
        <path class="cls-1" d="M-133.79,275.72c-.91-.97-1.84-1.96-2.75-2.96h-4.86c1.6,1.88,3.31,3.69,4.97,5.45.54.58,1.09,1.16,1.64,1.74v5.86c-.15.44-.3.87-.47,1.31-.47,1.27-.96,2.58-1.13,4.02-.3,2.76-1.78,4.58-5.1,6.29-6.47,3.34-13.51,4.77-18.91,5.63-7.56,1.21-15.29,2.2-22.76,3.17-2.26.29-4.54.59-6.81.88l-1.16.16-.34,1.11c-11.95,39.2-47.55,65.53-88.56,65.53s-77.13-27.08-88.75-66.17h-4.01s.01.04.01.06h-354.45l-.4,1.27c-12.16,38.78-47.66,64.84-88.36,64.84-47.9,0-88.44-37.38-92.28-85.09l-.07-.92-.79-.48c-1.15-.71-2.26-1.42-3.36-2.14-4.8-3.21-10.45-7.13-16.11-11.76-2.83-.65-5.64-1.49-8.41-2.48,7.7,7.07,15.89,12.85,22.49,17.26.88.59,1.78,1.16,2.7,1.74,2.13,23.68,12.91,45.61,30.41,61.86,17.84,16.55,41.07,25.65,65.41,25.65,41.85,0,78.4-26.51,91.41-66.11h353.12c12.9,39.2,49.72,66.11,91.42,66.11,21.04,0,41.01-6.66,57.78-19.27,15.89-11.95,27.91-28.86,33.91-47.71,1.89-.24,3.77-.48,5.66-.73,7.5-.98,15.25-1.99,22.86-3.2,5.68-.91,13.08-2.41,20-5.98,2.75-1.42,6.47-3.9,7.05-9.11.12-.99.51-2.05.92-3.16.22-.58.44-1.16.62-1.74l.08-.27v-7.86l-.48-.52c-.7-.76-1.42-1.53-2.14-2.29Z"/>
        <path class="cls-1" d="M-258.45,152.46c4.51.82,9,1.66,13.43,2.5,4.14.78,8.3,1.54,12.44,2.3.75-1.26,1.36-2.37,1.84-3.36-4.54-.84-9.07-1.67-13.61-2.52-4.03-.76-8.12-1.51-12.22-2.26-.82.75-1.45,1.8-1.88,3.34Z"/>
        <path class="cls-1" d="M-165.02,178.26v4.53c3.83,2.94,7.51,6.38,10.76,10.48.91,1.14,1.78,2.3,2.62,3.49h4.36c-1.3-1.97-2.65-3.9-4.13-5.75-4.08-5.14-8.79-9.3-13.6-12.74Z"/>
        <path class="cls-1" d="M-188.39,169.73v-3.95c-9.56-4.01-19.55-7.16-29.83-9.45-.82.94-1.68,2.01-2.56,3.15,11.22,2.37,22.07,5.81,32.39,10.25Z"/>
        <path class="cls-1" d="M-136.26,248.89c-1.57,1.83-3.2,3.72-4.71,5.68-.96,1.25-1.64,2.93-1.8,4.52-.11.97-.19,1.95-.25,2.92,1.3-.11,2.52-.28,3.67-.5.06-.68.12-1.36.19-2.02.1-.94.51-1.97,1.08-2.7,1.44-1.89,3.04-3.73,4.58-5.52.64-.74,1.28-1.49,1.91-2.23l.44-.51v-4.11l-.05-.41c-.4-1.74-.82-3.49-1.25-5.22-.9-3.73-1.83-7.58-2.59-11.4-.47-2.37-1.04-4.66-1.66-6.9h-.05v-.07s0,.07,0,.07h.05c-.03-.12-.07-.24-.1-.36v-.05s-.02-.03-.02-.05l-.09-.57c-.85-5.24-1.77-8.6-3.76-10.42,0,0,0,0,0,0-.47-.42-.99-.76-1.59-1.02-.88-.4-1.94-.61-3.17-.65,3.04,6.3,5.32,13.17,6.83,20.74.78,3.88,1.72,7.76,2.63,11.53.4,1.66.8,3.33,1.19,4.99v2.56c-.48.58-.98,1.15-1.47,1.71Z"/>
        <path class="cls-1" d="M-950.33,190.32c.04-6.73.07-13.58.11-20.46-1.43,2.69-2.68,5.6-3.68,8.77-.02,3.91-.04,7.81-.06,11.66-.04,5.32-.07,10.63-.1,15.95v.08c.86,1.15,1.74,2.29,2.63,3.39,1.02-1.03,1.02-2.53,1.01-3.23v-.23c.02-5.32.06-10.63.1-15.94Z"/>
        <path class="cls-1" d="M-912.04,270.96c20.52,0,41.22-9.23,55.05-29.77.1-.13.21-.27.29-.41l-1.43-.55c-10.96,15.64-28.39,23.36-45.82,23.36-20.93,0-41.84-11.14-51.68-33.62-2-4.55-3.55-9.57-4.54-15.06-.73-4-1.14-8.24-1.26-12.73-.02-.55-.02-1.11-.02-1.67v-.53c0-8.27,1.13-15.58,3.1-22,1.21-3.9,2.73-7.46,4.52-10.71.19-.36.39-.73.59-1.08.94-1.64,1.97-3.2,3.05-4.66,9.99-13.52,25.21-19.78,39.59-19.78,20.07,0,38.4,12.34,37.9,34.22-.04,1.43-.15,2.91-.35,4.42l.11-.48,5.55-25.29.1-.46c-13.48-10.25-28.92-15.09-44.03-15.09-14.01,0-27.64,4.19-38.86,11.98-1.24.87-2.45,1.79-3.63,2.74h0c-14.26,11.48-23.81,29.26-23.81,51.95v.25c.1,26.08,13.42,45.43,31.72,55.96,2.97,1.71,6.06,3.19,9.24,4.42,7.81,3.02,16.18,4.59,24.62,4.59Z"/>
        <path class="cls-1" d="M-914.88,97.56h4.77c4.77-5.62,9.53-11.24,14.32-16.84.65-.76,1.51-1.94,1.39-3.39-.12-1.43-1.11-2.4-1.84-3.02-.63-.52-1.21-1.13-1.83-1.77-.44-.45-.86-.9-1.3-1.31-1.89-1.82-1.95-3.08-1.47-4.41.59-1.59,1.74-2.29,3.97-2.42,1.39-.08,3.11-.29,5.11-.53,4.99-.59,11.95-1.42,19.42-.93.19.08.41.15.68.13.33-.01.63,0,.94-.01,1.7.16,3.42.38,5.14.7l.04-.17c7.15,1.49,13.32,5.89,19.16,10.42,4.02,3.14,7.46,5.57,11.13,8.98,7.75,7.19,14.64,15.36,20.86,23.89,8.54,11.71,15.9,24.39,21.31,37.86,4.87,12.11,8.18,24.9,9.13,37.92.22,2.92.31,5.86.29,8.79-.02,2.02-.13,4.05-.28,6.06l-2.77-8.73-15.54-48.81h-.9l-28.43,90.65c.61-.52,1.24-1.02,1.9-1.48l.47-1.48h.06l.48-1.62h-.01l.53-1.7h0s19.05-61.02,19.05-61.02l13.61,44.83,4.88,16.08c-3.78-.13-7.58-.06-11.36.29-.33.04-.65.06-.98.11-2.4.24-4.86.58-7.32,1.07h-.01c-.55.11-1.1.22-1.66.34h-.01c-1.97.44-3.94.97-5.85,1.62-4.65,1.57-9.02,3.85-12.55,7.16-.62.58-1.19,1.2-1.73,1.85-2.19,2.63-3.69,5.81-3.72,9.3-.01,1.04.12,2.05.36,3.03.58,2.36,1.85,4.49,3.55,6.26.57.58,1.17,1.15,1.83,1.65.25.19.52.39.79.57.05.02.08.06.13.08.16.11.34.21.51.31.24.16.48.29.74.42.19.11.4.22.59.3.01.01.02.02.04.02.15.07.29.15.45.21.21.11.42.19.65.29.71.29,1.45.53,2.2.73.23.06.46.11.69.16.16.04.31.07.46.1.22.05.45.08.67.12.04,0,.06.01.08.01.16.04.34.06.51.07.02.01.04.01.06.01.04,0,.06.01.1.01.25.02.51.05.75.07.24.02.48.04.73.05.25.01.5.02.74.02.79.01,1.57-.01,2.37-.08.31-.02.63-.06.94-.1.08-.01.16-.02.24-.04.21-.02.41-.05.62-.08.15-.02.28-.06.42-.08.15-.02.28-.05.41-.07.13-.02.27-.05.4-.08.22-.05.44-.1.64-.15.65-.16,1.31-.35,1.94-.57.02-.01.05-.01.07-.02.36-.12.71-.25,1.07-.4.51-.19,1.01-.4,1.49-.64.29-.13.58-.28.86-.42h.01c.56-.3,1.1-.61,1.62-.96.53-.33,1.04-.69,1.54-1.07,3.88-2.97,6.4-7.56,8.85-11.69.52-.87,1.02-1.76,1.51-2.64.93-1.67,1.83-3.38,2.68-5.1.88-1.79,1.73-3.61,2.52-5.45.06-.13.11-.28.17-.41,7.51,22.33,19.6,36.87,33.38,45.83,13.78,8.95,29.25,12.32,43.52,12.32,9.16,0,17.78-1.44,25.16-3.6l-.18-.9c-4.68,1.26-10.43,2.16-16.71,2.16-23.13,0-53.9-11.8-70.14-57.02.99.18,2,.36,2.98.57.74.16,1.47.33,2.2.5,9.79,2.19,19.32,5.32,28.84,8.45,1.5.5,2.99.98,4.49,1.48v10.63c0,14.73-5.39,16.35-13.48,17.43h41.34c-7.91-1.08-13.48-2.7-13.48-17.43v-6.17c1.49.42,2.99.84,4.49,1.24,3.82,1.01,7.67,1.9,11.57,2.63,2.74.51,5.51.9,8.3,1.16,1.79.17,3.59.28,5.39.34,1.07,1.84,2.17,3.78,3.32,5.83,14.2,25.34,39.53,33.07,62.35,33.07,10.42,0,20.3-1.62,28.39-3.96l-.18-.71c-4.68,1.26-10.42,2.16-16.88,2.16-18.52,0-41.69-7.36-58.22-33.07-1.02-1.59-2-3.1-2.99-4.55.11-.02.22-.04.33-.06,1.45-.3,2.88-.69,4.3-1.13,3.69-1.13,7.23-2.65,10.56-4.54,3.33-1.89,6.48-4.14,9.41-6.71,5.67-4.97,10.26-11.06,13.02-18.1,2.93-7.47,3.54-15.7,2.58-23.63-.57-4.7-1.61-9.3-2.98-13.83-.07-.25-.21-.46-.35-.62l1.34-.41-.29-.97-6.61-33.91-.67-3.45.05-1.21c1.64-2.31,2.4-5.16,1.95-7.99l1.42-.44-.41-1.36-.34-1.08-.48-1.6-1.45.45c-2.41-4.94-8.35-7.47-13.86-5.78-5.52,1.7-9.01,7.11-8.24,12.56l-1.45.44.48,1.61.34,1.08.41,1.34,1.42-.44c1.21,2.6,3.44,4.54,6.1,5.54l.71.97,1.38,3.23,13.55,31.78.3.97,1.5-.46.3.67h0c2.65,8.78,4.2,18.17,2.68,27.3-1.25,7.53-4.58,14.52-9.6,20.28-5.86,6.7-13.52,12.12-21.98,14.93-.85.28-1.72.53-2.58.78-1.56.42-3.15.79-4.74,1.09h-.01c-3.34-4.6-6.78-8.42-10.95-11.28-4.15-2.85-9.04-4.76-15.25-5.55,52.83-6.47,50.5-86.97-7.01-86.8h-38.27c8.09,1.08,13.48,2.7,13.48,17.44v77.03c-1.5-.48-2.99-.98-4.49-1.47-9.45-3.09-18.91-6.14-28.62-8.27-.48-.11-.97-.19-1.45-.3-1.67-.35-3.37-.67-5.06-.96-.27-.81-.55-1.6-.8-2.42l-5.98-18.8c.01-.07.02-.16.04-.24.53-3.85.82-7.73.91-11.6.02-.81.02-1.62.02-2.43,0-12.05-2.01-24.07-5.6-35.59-4.58-14.73-11.56-28.67-20-41.54-6.66-10.15-14.23-19.8-22.75-28.46-2.65-2.71-5.4-5.35-8.38-7.72-2.91-2.29-5.87-4.53-8.81-6.78-3.74-2.86-7.63-5.63-11.94-7.57-2.22-.99-4.51-1.74-6.86-2.2l.07-.39c-10.44-1.93-20.55-.73-27.25.07-1.94.23-3.62.44-4.91.51-3.66.22-6.06,1.83-7.16,4.81-1.1,2.99-.33,5.7,2.36,8.28.4.39.79.79,1.17,1.2.67.68,1.34,1.39,2.13,2.03.31.28.46.45.52.53-.05.1-.17.33-.51.71-5.45,6.4-10.89,12.8-16.33,19.21ZM-792.9,232.25c-.81,1.77-1.67,3.52-2.58,5.26-.88,1.68-1.79,3.36-2.77,4.99-2.45,4.11-4.94,8.82-9.02,11.51-3.08,2.02-6.77,3.19-10.48,3.42-.9.06-1.79.06-2.68.01-4.19-.24-8.51-2.53-10.77-6.13-.02-.04-.05-.07-.07-.11-2.29-3.75-1.7-8.18.8-11.68.93-1.32,2.07-2.48,3.34-3.52,1.91-1.57,4.12-2.85,6.35-3.84.36-.17.74-.34,1.11-.5,4.75-1.93,9.88-3.12,14.97-3.79.11-.01.22-.04.33-.05.08-.01.18-.02.27-.04.42-.05.85-.08,1.27-.12,1.45-.16,2.91-.27,4.36-.34-1.45.07-2.91.19-4.36.34h11.91c-.62,1.54-1.28,3.08-1.97,4.59ZM-657.31,124.04c4.63-1.42,9.61.64,11.74,4.66l-18.82,5.78c-.5-4.53,2.47-9.02,7.09-10.44ZM-658.97,142.62c-1.73-.84-3.19-2.14-4.11-3.85l18.81-5.77c.19,1.91-.27,3.83-1.24,5.49l-13.47,4.13ZM-647.48,159.66h0s2.01-.62,2.01-.62l-2.01.62ZM-640.51,180.06c.46-.34,1.11-.44,1.65-.18-.53-.24-1.19-.16-1.65.18ZM-720.84,159.19c0-13.3,2.7-15.09,10.07-15.09h.35c40.61,0,40.44,84.1,0,84.1h-10.42v-69ZM-720.84,229.82h10.42c5.89,0,11.09,6.43,17.51,17.16h.01c.07.13.16.27.23.4-.08-.13-.17-.27-.24-.4-1.85-.11-3.71-.28-5.55-.51-.69-.08-1.37-.17-2.06-.28-5.34-.79-10.61-2-15.83-3.43-1.5-.41-3-.84-4.49-1.27v-11.68Z"/>
        <path class="cls-1" d="M-921.32,100.75c-.33-.29-.7-.47-1.13-.57-.41-.08-.86-.13-1.31-.12-.46.01-.91.07-1.34.18-.42.1-.82.21-1.17.33-.98.38-1.9.85-2.75,1.43-.86.57-1.66,1.2-2.41,1.88-1.68,1.49-3.16,3.15-4.42,4.97-1.27,1.82-2.43,3.73-3.49,5.74-.23.4-.47.73-.71.98-.24.27-.62.39-1.1.39-.4-.02-.8-.1-1.19-.24-.38-.15-.73-.33-1.03-.56-.75-.47-1.36-1.08-1.8-1.82-.46-.74-.73-1.55-.8-2.43-.07-.85.04-1.72.31-2.62.29-.91.7-1.73,1.25-2.5.56-.76,1.21-1.4,1.97-1.91.76-.52,1.59-.84,2.47-.96.25-.04.52-.06.79-.06s.53.04.8.13c.21.07.41.18.61.31.21.15.41.22.62.22.22.02.38-.01.47-.1.11-.07.17-.18.19-.31.02-.12.01-.27-.05-.41-.06-.16-.15-.29-.27-.41-.88-.38-1.78-.51-2.66-.42-.9.1-1.67.28-2.33.53-.84.33-1.66.75-2.46,1.26-.79.52-1.51,1.11-2.16,1.78-.64.67-1.19,1.4-1.61,2.23-.44.82-.7,1.7-.8,2.63-.06.99.06,1.96.38,2.94.31.97.85,1.78,1.6,2.43.81.68,1.73,1.11,2.75,1.3,1.03.19,2.05.3,3.08.31-.61,1.2-1.24,2.33-1.88,3.38-.64,1.05-1.34,2.13-2.1,3.23-.11.18-.23.39-.35.59-.11.21-.3.34-.56.39-.23.05-.47.01-.71-.11-.25-.11-.48-.19-.69-.24-.61-.19-1.22-.34-1.87-.46-.63-.11-1.25-.16-1.85-.13-.9.02-1.83.15-2.81.36-.99.22-1.82.68-2.5,1.36-.4.4-.58.79-.57,1.17.02.39.17.74.42,1.07.27.33.59.62.98.86.4.25.78.44,1.13.55.52.17,1.05.27,1.6.28.56.02,1.1.01,1.64-.05.55-.06,1.07-.15,1.6-.28.52-.13,1.04-.27,1.53-.4.58-.15,1.13-.33,1.61-.57.24-.11.46-.23.68-.35.21-.11.44-.17.7-.17.41.02.82.16,1.22.4.4.24.8.42,1.2.54.3.1.65.22.99.31.19.07.38.13.58.19.57.18,1.13.33,1.71.44.57.12,1.14.19,1.7.23h.05c.54.04,1.09-.01,1.61-.12.3-.07.63-.16.99-.27.36-.1.71-.24,1.05-.4.34-.17.64-.38.9-.62.27-.24.46-.54.61-.9.08-.11.13-.24.13-.36,0-.13-.08-.22-.28-.27-.21-.05-.39.02-.52.21-.15.19-.28.33-.39.42-.33.28-.71.44-1.16.46s-.87.01-1.3-.04c-.01,0-.02,0-.04-.01-.59-.08-1.16-.23-1.71-.41-.55-.18-1.1-.39-1.67-.59-.13-.05-.27-.1-.41-.15-.39-.15-.79-.28-1.16-.42-.52-.18-1.04-.38-1.59-.59.8-.51,1.47-1.15,2.01-1.91.53-.76,1.03-1.56,1.47-2.4.45-.85.9-1.67,1.34-2.48.44-.81.97-1.51,1.57-2.12.38-.38.82-.63,1.36-.76.52-.12,1.02-.28,1.49-.47,2.11-.82,4.08-1.96,5.92-3.44l.02-.02c1.83-1.48,3.39-3.09,4.7-4.86.28-.38.59-.85.93-1.43.16-.28.31-.57.45-.87.15-.3.27-.62.38-.93.21-.63.29-1.25.27-1.84-.04-.61-.28-1.11-.73-1.53ZM-949.54,127.66c-.71.3-1.47.48-2.26.55-.25.02-.52.04-.79.04s-.55-.02-.81-.07c-.27-.04-.51-.13-.73-.25-.21-.13-.35-.33-.45-.58-.12-.3-.12-.58-.02-.82.11-.25.27-.45.47-.61.22-.15.46-.27.74-.36.29-.1.54-.16.78-.21.87-.12,1.73-.06,2.58.19.86.24,1.66.53,2.41.88-.56.54-1.2.96-1.91,1.25ZM-922.99,103.49c-.22.48-.44.91-.64,1.26-.62,1.13-1.31,2.17-2.07,3.11-.78.94-1.61,1.83-2.5,2.65-.55.46-1.08.93-1.62,1.4-.53.46-1.11.9-1.72,1.3-.48.4-1.03.73-1.61.98-.59.27-1.19.51-1.79.74.82-1.4,1.62-2.79,2.41-4.15.78-1.38,1.61-2.74,2.51-4.09.3-.45.63-.92.97-1.43.34-.5.69-.99,1.07-1.48.38-.47.78-.91,1.2-1.3.42-.39.88-.7,1.41-.97.21-.08.45-.17.71-.24.27-.07.53-.1.78-.08s.47.08.69.23c.21.13.35.35.41.63.1.47.04.94-.19,1.44Z"/>
        <path class="cls-1" d="M-922.92,114.62c-.67.25-1.31.58-1.91.98-.51.3-.98.64-1.44.99,0,0,0,0,0,0-.69.51-1.34,1.06-1.93,1.68-.98,1.03-1.82,2.2-2.49,3.51,0,0,0,.02-.01.03,0,0,0,0,.01-.01,0,0,0,0,0,.01-.25.46-.5.94-.71,1.47s-.4,1.07-.52,1.64c-.13.56-.19,1.13-.18,1.68.01.56.15,1.09.38,1.57.28.57.65.98,1.14,1.24.48.25.99.4,1.55.42.55.02,1.1-.05,1.68-.19.57-.16,1.08-.36,1.53-.62.3-.16.69-.44,1.17-.81.48-.38,1.01-.8,1.56-1.3.57-.5,1.13-1.03,1.71-1.61.45-.47.86-.92,1.26-1.37.08-.16.15-.3.23-.48.44-.84,1.02-1.87,1.72-3.06-.28.3-.65.75-1.13,1.33-.46.58-.99,1.21-1.57,1.88-.58.67-1.21,1.32-1.88,1.96-.67.65-1.33,1.17-1.99,1.56-.28.19-.63.38-1.05.57-.42.18-.84.3-1.25.35-.41.05-.76-.02-1.08-.19-.3-.18-.48-.53-.56-1.08-.05-.39-.02-.8.05-1.21.08-.4.21-.8.38-1.17.12-.25.23-.57.33-.94.11-.38.25-.65.45-.85.16-.18.41-.29.74-.31.33-.02.61-.06.84-.1.42-.12.82-.24,1.21-.38.39-.12.78-.28,1.17-.44.73-.33,1.45-.71,2.17-1.16.71-.45,1.34-.97,1.91-1.57.23-.24.46-.51.68-.81.23-.3.41-.63.55-.98.15-.35.23-.71.25-1.08.02-.36-.07-.7-.29-1.03-.25-.45-.64-.69-1.15-.74-.52-.05-1.01-.02-1.44.07-.7.11-1.39.3-2.06.56ZM-920.51,115.47c.02.3-.06.64-.25,1.03-.18.39-.35.71-.48.97-.22.33-.45.64-.73.93-.27.29-.56.57-.86.82-.61.53-1.25,1.04-1.91,1.51-.67.46-1.4.73-2.23.78.52-.82,1.05-1.62,1.6-2.41.56-.79,1.16-1.53,1.84-2.23.05-.05.16-.16.33-.34.16-.17.35-.35.56-.55.21-.18.44-.36.68-.54.25-.17.48-.3.69-.39.21-.07.39-.1.52-.05.15.05.23.19.25.46Z"/>
        <path class="cls-1" d="M-917.93,119.94c-.09.15-.17.29-.26.43-.71,1.2-1.29,2.23-1.73,3.08-.09.17-.15.32-.23.48-.35.73-.63,1.38-.77,1.91-.18.64-.25,1.26-.23,1.84.09.82.45,1.41,1.07,1.76.62.35,1.32.47,2.09.35.8-.26,1.59-.66,2.39-1.19.8-.54,1.57-1.15,2.32-1.83.75-.68,1.45-1.41,2.11-2.18.66-.77,1.24-1.51,1.76-2.21.52-.7.94-1.34,1.28-1.91.34-.57.56-1.01.65-1.32-.05-.12-.12-.18-.21-.18-.02.02-.05.06-.07.11s-.06.09-.11.14c-.19.26-.46.64-.83,1.14s-.78,1.06-1.26,1.67c-.48.61-.98,1.24-1.51,1.88-.53.64-1.05,1.25-1.56,1.81-.52.56-1,1.04-1.44,1.44-.44.4-.83.66-1.16.77-.54.19-1,.17-1.39-.05s-.5-.64-.33-1.25c.3-1.03.77-2.17,1.39-3.41.62-1.24,1.31-2.52,2.07-3.85.76-1.32,1.56-2.63,2.39-3.93.83-1.3,1.62-2.51,2.37-3.63h2.99v-1.23h-2.32c.73-1.05,1.34-1.98,1.84-2.79s.91-1.5,1.23-2.09c.32-.59.56-1.09.72-1.51.16-.42.28-.77.35-1.05.05-.09-.13-.16-.53-.21-.4-.05-.84-.07-1.34-.07-.44,0-.87.02-1.26.07s-.68.12-.84.21c-.09.09-.18.22-.25.39-.07.16-.13.32-.18.46,0,.05-.01.09-.03.12-.02.03-.04.08-.04.12-.14.54-.37,1.12-.7,1.74-.33.62-.64,1.21-.95,1.77v-.04l-.39.7-1.51,2.18h-2.99v1.23h2.35l-1.83,2.95c-1.26,2.06-2.31,3.79-3.14,5.18Z"/>
        <path class="cls-1" d="M-901.3,107.98c-.35.19-.61.32-.77.39-.21.07-.39.11-.54.11s-.25.07-.3.21c0,.07.04.16.11.28.05,0,.11.01.18.04.19.07.46.05.81-.05s.69-.28,1.02-.51c.82-.51,1.43-.99,1.83-1.44.4-.44.69-1.03.88-1.76.12-.44.06-.86-.18-1.25-.23-.39-.54-.63-.91-.72-.49-.14-.99-.05-1.49.28-.5.33-.83.75-.97,1.26-.12.42-.07.8.14,1.12s.46.61.74.84c.14.12.19.29.14.53-.09.26-.32.48-.67.67Z"/>
        <path class="cls-1" d="M-896.61,117.62c.13-.64.29-1.23.47-1.77l.35-.53c.12-.19.22-.37.32-.54.09-.18.15-.36.18-.54l-.07-.07c-.12,0-.24,0-.37-.02-.13-.01-.25-.02-.37-.02v.03c-.31-.02-.6-.03-.9-.03s-.57.03-.83.09c-.26.06-.5.16-.74.3-.23.14-.44.34-.63.6-.4.47-.79.95-1.18,1.46-.39.5-.78,1.02-1.18,1.56-.63.84-1.3,1.7-2,2.58-.7.88-1.43,1.74-2.18,2.58-.75.84-1.54,1.64-2.37,2.39-.83.75-1.69,1.41-2.58,1.97l-.39.25c-.21.09-.41.2-.6.33-.19.13-.32.31-.39.54-.07.31-.04.53.09.68.13.15.32.19.58.12.23-.05.45-.13.65-.26.2-.13.39-.26.58-.4,1.55-1.31,2.97-2.73,4.29-4.27,1.31-1.53,2.6-3.08,3.86-4.65.37-.47.74-.92,1.09-1.35.35-.43.73-.87,1.12-1.32-.33,1.62-.73,3.26-1.21,4.92-.48,1.66-1.13,3.23-1.95,4.71-.09.12-.22.27-.39.46-.16.19-.35.37-.54.56-.2.19-.4.35-.62.49-.21.14-.41.21-.6.21-.26.05-.46-.07-.62-.35-.15-.28-.23-.55-.23-.81,0-.14.01-.25.04-.32.05-.19.07-.37.07-.55s-.07-.31-.21-.4c-.21-.12-.46-.12-.76,0-.29.12-.51.23-.65.35-.21.19-.36.39-.46.6-.09.21-.14.42-.14.63,0,.33.11.64.33.95.22.31.51.54.86.7.51.21,1.08.32,1.69.32.47,0,.92-.05,1.37-.16.44-.11.87-.25,1.26-.44.98-.44,1.79-1.02,2.41-1.74.62-.71,1.13-1.5,1.53-2.37.4-.87.71-1.78.95-2.74.23-.96.46-1.93.67-2.92v.04c.12-.59.24-1.2.37-1.84Z"/>
      </g>
      <g>
        <g>
          <path class="cls-1" d="M301.51,1.62c-.76-.68-1.64-1.1-2.63-1.33-.96-.2-2.01-.31-3.05-.28-1.07.03-2.12.17-3.14.42-.99.23-1.92.48-2.74.76-2.29.88-4.44,1.98-6.42,3.34-2.01,1.33-3.87,2.8-5.63,4.38-3.93,3.48-7.38,7.35-10.32,11.59-2.97,4.24-5.68,8.71-8.14,13.4-.54.93-1.1,1.7-1.67,2.29-.57.62-1.44.9-2.57.9-.93-.06-1.87-.23-2.77-.57-.88-.34-1.7-.76-2.4-1.3-1.75-1.1-3.17-2.52-4.21-4.24-1.07-1.72-1.7-3.62-1.87-5.68-.17-1.98.08-4.01.74-6.11.68-2.12,1.64-4.04,2.91-5.82,1.3-1.78,2.83-3.28,4.61-4.47,1.78-1.22,3.7-1.95,5.77-2.23.59-.08,1.22-.14,1.84-.14s1.24.08,1.87.31c.48.17.96.42,1.41.74.48.34.96.51,1.44.51.51.06.88-.03,1.1-.23.25-.17.4-.42.45-.74.06-.28.03-.62-.11-.96-.14-.37-.34-.68-.62-.96-2.06-.88-4.16-1.19-6.22-.99-2.09.23-3.9.65-5.43,1.24-1.95.76-3.87,1.75-5.74,2.94-1.84,1.22-3.53,2.6-5.03,4.16-1.5,1.56-2.77,3.28-3.76,5.2-1.02,1.92-1.64,3.96-1.87,6.14-.14,2.32.14,4.58.88,6.87.74,2.26,1.98,4.16,3.73,5.68,1.89,1.58,4.04,2.6,6.42,3.03,2.4.45,4.78.71,7.18.74-1.41,2.8-2.88,5.43-4.38,7.89-1.5,2.46-3.14,4.98-4.89,7.55-.25.42-.54.9-.82,1.39-.25.48-.71.79-1.3.9-.54.11-1.1.03-1.67-.25-.59-.25-1.13-.45-1.61-.57-1.41-.45-2.86-.79-4.35-1.07-1.47-.25-2.91-.37-4.33-.31-2.09.06-4.27.34-6.56.85-2.32.51-4.24,1.58-5.82,3.17-.93.93-1.36,1.84-1.33,2.74.06.9.4,1.72.99,2.49.62.76,1.39,1.44,2.29,2.01.93.59,1.81,1.02,2.63,1.27,1.22.4,2.46.62,3.73.65,1.3.06,2.57.03,3.82-.11,1.27-.14,2.49-.34,3.73-.65,1.22-.31,2.43-.62,3.56-.93,1.36-.34,2.63-.76,3.76-1.33.57-.25,1.07-.54,1.58-.82.48-.25,1.02-.4,1.64-.4.96.06,1.92.37,2.86.93.93.57,1.87.99,2.8,1.27.71.23,1.53.51,2.32.74.45.17.88.31,1.36.45,1.33.42,2.63.76,3.99,1.02,1.33.28,2.66.45,3.96.54h.11c1.27.08,2.54-.03,3.76-.28.71-.17,1.47-.37,2.32-.62.85-.23,1.67-.57,2.46-.93.79-.4,1.5-.88,2.09-1.44.62-.57,1.07-1.27,1.41-2.09.2-.25.31-.57.31-.85,0-.31-.2-.51-.65-.62-.48-.11-.9.06-1.22.48-.34.45-.65.76-.9.99-.76.65-1.67,1.02-2.71,1.07s-2.04.03-3.03-.08c-.03,0-.06,0-.08-.03-1.39-.2-2.71-.54-3.99-.96-1.27-.42-2.57-.9-3.9-1.39-.31-.11-.62-.23-.96-.34-.9-.34-1.84-.65-2.71-.99-1.22-.42-2.43-.88-3.7-1.39,1.87-1.19,3.42-2.69,4.69-4.47,1.24-1.78,2.4-3.65,3.42-5.6,1.05-1.98,2.09-3.9,3.14-5.8,1.02-1.89,2.26-3.53,3.68-4.95.88-.88,1.92-1.47,3.17-1.78,1.22-.28,2.38-.65,3.48-1.1,4.92-1.92,9.53-4.58,13.83-8.03l.06-.06c4.27-3.45,7.92-7.21,10.97-11.34.65-.88,1.39-1.98,2.18-3.34.37-.65.74-1.33,1.05-2.04.34-.71.62-1.44.88-2.18.48-1.47.68-2.91.62-4.3-.08-1.41-.65-2.6-1.7-3.56ZM235.64,64.44c-1.67.71-3.42,1.13-5.29,1.27-.59.06-1.22.08-1.84.08s-1.27-.06-1.89-.17c-.62-.08-1.19-.31-1.7-.59-.48-.31-.82-.76-1.05-1.36-.28-.71-.28-1.36-.06-1.92.25-.59.62-1.05,1.1-1.41.51-.34,1.07-.62,1.72-.85.68-.23,1.27-.37,1.81-.48,2.04-.28,4.04-.14,6.02.45,2.01.57,3.87,1.24,5.63,2.06-1.3,1.27-2.8,2.23-4.47,2.91ZM297.61,8.01c-.51,1.13-1.02,2.12-1.5,2.94-1.44,2.63-3.05,5.06-4.83,7.27-1.81,2.21-3.76,4.27-5.82,6.19-1.27,1.07-2.52,2.18-3.79,3.28-1.24,1.07-2.6,2.09-4.01,3.03-1.13.93-2.4,1.7-3.76,2.29-1.39.62-2.77,1.19-4.18,1.72,1.92-3.28,3.79-6.5,5.63-9.7,1.81-3.22,3.76-6.39,5.85-9.56.71-1.05,1.47-2.15,2.26-3.34.79-1.16,1.61-2.32,2.49-3.45.88-1.1,1.81-2.12,2.8-3.03.99-.9,2.06-1.64,3.28-2.26.48-.2,1.05-.4,1.67-.57.62-.17,1.24-.23,1.81-.2.57.03,1.1.2,1.61.54.48.31.82.82.96,1.47.23,1.1.08,2.21-.45,3.36Z"/>
          <path class="cls-1" d="M297.78,33.99c-1.56.59-3.05,1.36-4.47,2.29-1.19.71-2.29,1.5-3.36,2.32,0,0,0,0,0,0-1.6,1.2-3.13,2.48-4.5,3.91-2.3,2.4-4.24,5.14-5.82,8.2-.01.02-.02.05-.03.07,0,0,.02-.02.02-.03,0,0,0,.01-.01.03-.59,1.07-1.16,2.21-1.67,3.42-.51,1.22-.93,2.49-1.22,3.82-.31,1.3-.45,2.63-.42,3.93.03,1.3.34,2.54.88,3.68.65,1.33,1.53,2.29,2.66,2.88,1.13.59,2.32.93,3.62.99,1.27.06,2.57-.11,3.93-.45,1.33-.37,2.52-.85,3.56-1.44.71-.37,1.61-1.02,2.74-1.89,1.13-.88,2.35-1.87,3.65-3.03,1.33-1.16,2.63-2.4,3.99-3.76,1.05-1.1,2.01-2.15,2.94-3.19.2-.37.34-.71.54-1.13,1.02-1.95,2.38-4.35,4.01-7.15-.65.71-1.53,1.75-2.63,3.11-1.07,1.36-2.32,2.83-3.68,4.38-1.36,1.56-2.83,3.08-4.38,4.58-1.56,1.53-3.11,2.74-4.64,3.65-.65.45-1.47.88-2.46,1.33-.99.42-1.95.71-2.91.82-.96.11-1.78-.06-2.52-.45-.71-.42-1.13-1.24-1.3-2.52-.11-.9-.06-1.87.11-2.83.2-.93.48-1.87.88-2.74.28-.59.54-1.33.76-2.21.25-.88.59-1.53,1.05-1.98.37-.42.96-.68,1.72-.74.76-.06,1.41-.14,1.95-.23.99-.28,1.92-.57,2.83-.88.9-.28,1.81-.65,2.74-1.02,1.7-.76,3.39-1.67,5.06-2.71,1.67-1.05,3.14-2.26,4.47-3.68.54-.57,1.07-1.19,1.58-1.89.54-.71.96-1.47,1.27-2.29.34-.82.54-1.67.59-2.52.06-.85-.17-1.64-.68-2.4-.59-1.05-1.5-1.61-2.69-1.72-1.22-.11-2.35-.06-3.36.17-1.64.25-3.25.71-4.81,1.3ZM303.41,35.97c.06.71-.14,1.5-.59,2.4-.42.9-.82,1.67-1.13,2.26-.51.76-1.05,1.5-1.7,2.18-.62.68-1.3,1.33-2.01,1.92-1.41,1.24-2.91,2.43-4.47,3.53-1.56,1.07-3.28,1.7-5.2,1.81,1.22-1.92,2.46-3.79,3.73-5.63,1.3-1.84,2.71-3.56,4.3-5.2.11-.11.37-.37.76-.79.37-.4.82-.82,1.3-1.27.48-.42,1.02-.85,1.58-1.27.59-.4,1.13-.71,1.61-.9.48-.17.9-.23,1.22-.11.34.11.54.45.59,1.07Z"/>
          <path class="cls-1" d="M309.43,46.41c-.21.35-.4.67-.6,1.01-1.66,2.8-3.01,5.21-4.04,7.19-.21.41-.35.74-.53,1.13-.83,1.7-1.47,3.22-1.8,4.45-.41,1.5-.59,2.94-.53,4.3.22,1.92,1.05,3.28,2.5,4.1,1.45.82,3.07,1.09,4.88.82,1.86-.6,3.72-1.53,5.58-2.79,1.86-1.26,3.66-2.68,5.41-4.27,1.75-1.58,3.39-3.28,4.92-5.08,1.53-1.8,2.9-3.53,4.1-5.17,1.2-1.64,2.2-3.13,2.99-4.47.79-1.34,1.3-2.36,1.52-3.08-.11-.27-.28-.41-.49-.41-.06.06-.11.14-.16.25s-.14.22-.25.33c-.44.6-1.08,1.49-1.93,2.66-.85,1.18-1.83,2.47-2.95,3.89-1.12,1.42-2.29,2.89-3.53,4.39-1.23,1.5-2.45,2.91-3.65,4.22-1.2,1.31-2.32,2.44-3.36,3.36-1.04.93-1.94,1.53-2.71,1.8-1.26.44-2.34.4-3.24-.12s-1.16-1.49-.78-2.91c.71-2.4,1.79-5.06,3.24-7.95,1.45-2.9,3.06-5.89,4.84-8.98,1.78-3.09,3.63-6.15,5.57-9.18,1.94-3.03,3.79-5.86,5.54-8.48h6.97v-2.87h-5.41c1.7-2.46,3.13-4.63,4.3-6.52,1.18-1.89,2.13-3.51,2.87-4.88.74-1.37,1.3-2.54,1.68-3.53.38-.99.66-1.81.82-2.46.11-.22-.3-.38-1.23-.49-.93-.11-1.97-.17-3.12-.17-1.04,0-2.02.06-2.95.17s-1.58.27-1.97.49c-.22.22-.41.52-.57.9-.17.38-.3.74-.41,1.07,0,.11-.03.2-.08.29-.06.08-.08.18-.08.28-.33,1.26-.88,2.61-1.64,4.06-.77,1.45-1.5,2.83-2.21,4.14v-.08l-.9,1.64-3.52,5.08h-6.97v2.87h5.49l-4.26,6.89c-2.95,4.81-5.4,8.84-7.34,12.09Z"/>
          <path class="cls-1" d="M348.25,18.5c-.82.44-1.42.74-1.8.9-.49.16-.92.25-1.27.25s-.59.16-.7.49c0,.16.08.38.25.65.11,0,.25.03.41.08.44.17,1.07.12,1.89-.12s1.61-.64,2.38-1.19c1.91-1.2,3.33-2.32,4.26-3.36.93-1.04,1.61-2.4,2.05-4.1.27-1.04.14-2.01-.41-2.91-.55-.9-1.26-1.46-2.13-1.68-1.15-.33-2.31-.11-3.48.65-1.18.77-1.93,1.75-2.26,2.95-.27.99-.16,1.86.33,2.63s1.07,1.42,1.72,1.97c.33.28.44.68.33,1.23-.22.6-.74,1.12-1.56,1.56Z"/>
          <path class="cls-1" d="M359.2,41c.3-1.5.67-2.88,1.11-4.14l.82-1.23c.27-.44.52-.86.74-1.27.22-.41.36-.83.41-1.27l-.17-.17c-.27,0-.56-.01-.86-.04-.3-.03-.59-.04-.86-.04v.08c-.71-.05-1.41-.08-2.09-.08s-1.33.07-1.93.2c-.6.14-1.18.37-1.72.7-.55.33-1.04.8-1.47,1.39-.93,1.1-1.85,2.23-2.75,3.4-.9,1.18-1.82,2.39-2.75,3.65-1.48,1.97-3.03,3.98-4.67,6.03-1.64,2.05-3.34,4.06-5.08,6.02-1.75,1.97-3.59,3.83-5.53,5.58-1.94,1.75-3.95,3.28-6.03,4.59l-.9.57c-.49.22-.96.48-1.39.78-.44.3-.74.72-.9,1.27-.17.71-.1,1.25.2,1.6.3.36.75.45,1.35.29.55-.11,1.05-.31,1.52-.62.47-.3.92-.61,1.35-.94,3.61-3.06,6.94-6.38,10-9.96,3.06-3.58,6.07-7.2,9.02-10.86.87-1.09,1.72-2.15,2.54-3.16.82-1.01,1.7-2.04,2.63-3.08-.77,3.77-1.71,7.6-2.83,11.48-1.12,3.88-2.64,7.54-4.55,10.99-.22.27-.52.63-.9,1.07-.38.44-.81.88-1.27,1.31-.46.44-.94.82-1.44,1.15-.49.33-.96.49-1.39.49-.6.11-1.08-.16-1.44-.82-.36-.66-.53-1.28-.53-1.89,0-.33.03-.57.08-.74.11-.44.16-.86.16-1.27s-.16-.72-.49-.94c-.49-.27-1.08-.27-1.76,0-.68.27-1.19.55-1.52.82-.49.44-.85.9-1.07,1.39-.22.49-.33.98-.33,1.47,0,.77.26,1.5.78,2.21.52.71,1.19,1.26,2.01,1.64,1.2.49,2.51.74,3.93.74,1.09,0,2.16-.12,3.2-.37,1.04-.25,2.02-.59,2.95-1.03,2.3-1.04,4.17-2.39,5.62-4.06,1.45-1.66,2.63-3.51,3.56-5.53.93-2.02,1.67-4.15,2.21-6.39.55-2.24,1.07-4.51,1.56-6.81v.08c.27-1.37.56-2.8.86-4.3Z"/>
        </g>
        <g>
          <path class="cls-1" d="M685.32,176.78l-.13,1.91c-1.14-.15-26.08-3.52-39.52-5.24-1.2-.16-2.41-.32-3.61-.48-9.27-3.96-19.3-5.96-29.14-6.08l-3.67-2.52c-16.36-11.22-33.28-22.83-50.1-33.95-16.55-10.91-33.39-20.7-50.07-29.09-17.35-8.73-33.5-13.83-49.42-15.58-54.01-5.91-109.66-2.7-163.49.4-31.08,1.8-63.24,3.64-94.66,3.71v-2.82c-.05.87-.17,1.71-.5,2.54-.1.26-.23.51-.42.71-.54.55-2.37.72-2.65-.04-.14-.37.3-1.45.38-1.82.06-.28.69-3.77.8-3.79,1.04.03,2.41-.07,2.41,1.31,0,.09,0,.18,0,.27,0,.13,0,.26-.01.38.01-.12.02-.25.02-.37,31.32-.08,63.4-1.92,94.43-3.71,53.98-3.11,109.79-6.32,164.09-.38,16.35,1.8,32.93,7,50.66,15.94,16.8,8.46,33.77,18.32,50.44,29.31,16.86,11.14,33.78,22.75,50.16,33.99l5.46,3.74c1.61,1.12,3.34,1.34,5.34,1.59l.74.1c7.76,1.03,15.53,2.03,23.28,3.03,6.1.78,12.2,1.57,18.3,2.38,2.53.34,5.06.68,7.59,1.02,4.03.55,8.58.83,12.22,2.85.38.21.74.43,1.09.69Z"/>
          <path class="cls-1" d="M182.55,87.55c2.3.44,4.58.95,6.86,1.43,2.25.48,4.51.95,6.76,1.43,1.22.25,1.25.23,1.52-1.02.3-1.4.55-2.82.91-4.21.21-.82-.06-1.15-.85-1.31-4.64-.96-9.28-1.95-13.91-2.95-.78-.17-1.1.1-1.24.85-.28,1.47-.58,2.95-.94,4.41-.21.84.02,1.21.89,1.38Z"/>
          <path class="cls-1" d="M179.32,81.72c-1.68-.36-3.28-.69-4.86-1.03-.25,1.16-.46,2.15-.69,3.28,1.66.35,3.25.69,4.86,1.03.23-1.09.47-2.23.69-3.28Z"/>
          <path class="cls-1" d="M179.43,86.4c.54.22,1.14.27,1.73.4.41-1.96.8-3.77,1.2-5.69-.6-.13-1.15-.32-1.69-.33-.29,0-.78.29-.85.53-.37,1.42-.67,2.86-.91,4.31-.04.24.27.68.52.78Z"/>
          <path class="cls-1" d="M167.27,82.26c.56.09,1.12.11,1.68.2.41.07.82.2,1.23.3.11-.48.22-.97.33-1.45.08-.35.15-.71.21-1-1.08-.23-2.01-.41-2.94-.63-.81-.19-1.63.22-1.79.93-.18.74.41,1.51,1.29,1.65Z"/>
          <path class="cls-1" d="M173.05,83.69c.23-1.11.44-2.1.65-3.07-.84-.18-1.61-.34-2.39-.51-.22,1.06-.43,2.04-.65,3.07.83.18,1.59.34,2.39.51Z"/>
          <path class="cls-1" d="M104.34,212.36h-.04c-.01.11-.02.21-.03.32l.07-.32Z"/>
          <path class="cls-1" d="M139.12,282.18c-5.68,14.46-10.35,16.84-22.09,17.85h38.28c-9.04-.8-15.22-1.41-14.34-13.02-.82-1.52-1.45-3.13-1.85-4.83Z"/>
          <path class="cls-1" d="M464.93,259.42h39.53c14.56,46.9,48.7,60.91,77.81,60.91,9.17,0,17.79-1.44,25.16-3.6l-.18-.9c-4.66,1.26-10.42,2.16-16.71,2.16-24.08,0-56.42-12.75-72.06-62.7l-26.6-83.56h-.9l-30.37,96.85c-7.74,24.55-11.42,29.46-23.33,31.08,0,0,0,0,0,0,0,0,0,0,0,0-4.21-4.02-8.21-8.83-11.89-14.55-8.44-13.3-15.64-22.1-31.09-24.08,52.83-6.47,50.5-86.97-7-86.8h-38.27c8.08,1.08,13.47,2.7,13.47,17.44v90.93c0,14.73-5.39,16.35-13.47,17.43h41.33c-7.91-1.08-13.48-2.7-13.48-17.43v-21.03h10.43c7.36,0,13.65,10.07,22.64,26.05,14.2,25.34,39.53,33.07,62.35,33.07,10.43,0,20.31-1.62,28.39-3.96l-.17-.71c-4.68,1.26-10.43,2.16-16.9,2.16-14.27,0-31.3-4.38-45.93-18.14h-3.85s.02,0,.03,0h3.82s0,0,0,0h34.42c-12.21-1.08-19.22-1.8-10.6-29.83l3.42-10.78ZM485.06,195.08l19.04,62.72h-38.64l19.6-62.72ZM376.87,259.95v-69c0-13.3,2.7-15.09,10.07-15.09h.36c40.61,0,40.43,84.1,0,84.1h-10.43Z"/>
          <path class="cls-1" d="M677.51,236.95c0-43.85-32.7-65.59-65.59-65.59s-65.59,21.74-65.59,65.59,32.7,65.59,65.59,65.59,65.59-21.92,65.59-65.59ZM562.69,236.95c0-42.95,24.61-64.33,49.24-64.33s49.24,21.38,49.24,64.33-24.61,64.34-49.24,64.34-49.24-21.57-49.24-64.34Z"/>
          <path class="cls-1" d="M751.25,175.6c.15.11.28.23.4.36.13.11.25.25.36.4.65.84.98,1.94.98,3.27,0,1.83-.62,4.12-1.84,6.84-.48,1.07-1.04,2.19-1.71,3.39-.79,1.4-1.7,2.91-2.75,4.49l-31.62,48.16h.18l-.18.18,26.05,44.92c14.74,25.16,40.08,33.07,62.9,33.07,10.25,0,20.12-1.62,28.03-3.96l-.35-.71c-4.68,1.26-10.43,2.16-16.71,2.16-18.51,0-41.69-7.36-58.22-33.07-11.32-17.43-21.74-35.57-32.52-53.37l24.61-37.38c.96-1.48,1.89-2.81,2.81-4.08.84-1.15,1.65-2.24,2.45-3.22,7.63-9.47,14.06-12.23,20.98-12.83h-29.11c1.77,0,3.19.25,4.28.78.36.17.7.36.99.59Z"/>
          <path class="cls-1" d="M727.11,300.03h-41.33c.44-.06.86-.12,1.28-.18,7.37-1.11,12.19-3.31,12.19-17.25v-90.93c0-5.11-.64-8.64-1.83-11.11-.98-2.06-2.32-3.4-3.97-4.29-2.11-1.17-4.71-1.64-7.67-2.04h41.33c-4.94.68-8.98,1.57-11.3,5.73-.53.97-.98,2.11-1.32,3.45-.56,2.17-.86,4.86-.86,8.26v90.93c0,14.73,5.57,16.35,13.48,17.43Z"/>
          <path class="cls-1" d="M837.75,297.86c-1.15.19-2.36.33-3.62.41-1.08.08-2.18.13-3.33.13h-6.47c-15.46,0-16.53-1.79-16.53-15.09v-48.7h23.53c.25,0,.5.01.74.02.24.01.47.02.7.05h.01c.35.04.68.08,1.02.13,0,0,0,0,0,0,9.18,1.41,10.2,10.72,11.19,16.69v-35.4c-1.03,6.37-2.09,16-12.27,16.81,0,0,0,0,0,0-.24.02-.47.04-.7.06-.23.01-.45.02-.69.02h-23.53v-57.15h20.85c27.66,0,30.9,23,32.88,28.94l-5.22-30.56h-76.37c8.09,1.08,13.48,2.7,13.48,17.44v90.93c0,14.73-5.39,16.35-13.48,17.43h78.54v-.18l5.21-30.37c-1.8,5.39-4.64,24.88-25.93,28.38Z"/>
          <path class="cls-1" d="M26.93,171.11c-2.25,2.64-3.31,5.39-3.4,8.83,1.32-.94,2.66-1.83,4.03-2.68.39-1.36,1.08-2.56,2.13-3.79,1.77-2.07,3.54-4.17,5.31-6.24h-4.77c-1.1,1.28-2.19,2.58-3.29,3.88Z"/>
          <path class="cls-1" d="M843.53,307.48c-.91-.97-1.84-1.96-2.75-2.96h-4.86c1.6,1.88,3.31,3.69,4.97,5.45.54.58,1.09,1.16,1.64,1.74v5.86c-.15.44-.3.87-.47,1.31-.47,1.27-.96,2.58-1.13,4.02-.3,2.76-1.78,4.58-5.1,6.29-6.47,3.34-13.51,4.77-18.91,5.63-7.56,1.21-15.29,2.2-22.76,3.17-2.26.29-4.54.59-6.81.88l-1.16.16-.34,1.11c-11.95,39.2-47.55,65.53-88.56,65.53s-77.13-27.08-88.75-66.17h-4.01s.01.04.01.06H250.09l-.4,1.27c-12.16,38.78-47.66,64.84-88.36,64.84-47.9,0-88.44-37.38-92.28-85.09l-.07-.92-.79-.48c-1.15-.71-2.26-1.42-3.36-2.14-4.8-3.21-10.45-7.13-16.11-11.76-2.83-.65-5.64-1.49-8.41-2.48,7.7,7.07,15.89,12.85,22.49,17.26.88.59,1.78,1.16,2.7,1.74,2.13,23.68,12.91,45.61,30.41,61.86,17.84,16.55,41.07,25.65,65.41,25.65,41.85,0,78.4-26.51,91.41-66.11h353.12c12.9,39.2,49.72,66.11,91.42,66.11,21.04,0,41.01-6.66,57.78-19.27,15.89-11.95,27.91-28.86,33.91-47.71,1.89-.24,3.77-.48,5.66-.73,7.5-.98,15.25-1.99,22.86-3.2,5.68-.91,13.08-2.41,20-5.98,2.75-1.42,6.47-3.9,7.05-9.11.12-.99.51-2.05.92-3.16.22-.58.44-1.16.62-1.74l.08-.27v-7.86l-.48-.52c-.7-.76-1.42-1.53-2.14-2.29Z"/>
          <path class="cls-1" d="M718.87,184.21c4.51.82,9,1.66,13.43,2.5,4.14.78,8.3,1.54,12.44,2.3.75-1.26,1.36-2.37,1.84-3.36-4.54-.84-9.07-1.67-13.61-2.52-4.03-.76-8.12-1.51-12.22-2.26-.82.75-1.45,1.8-1.88,3.34Z"/>
          <path class="cls-1" d="M812.29,210.01v4.53c3.83,2.94,7.51,6.38,10.76,10.48.91,1.14,1.78,2.3,2.62,3.49h4.36c-1.3-1.97-2.65-3.9-4.13-5.75-4.08-5.14-8.79-9.3-13.6-12.74Z"/>
          <path class="cls-1" d="M788.93,201.48v-3.95c-9.56-4.01-19.55-7.16-29.83-9.45-.82.94-1.68,2.01-2.56,3.15,11.22,2.37,22.07,5.81,32.39,10.25Z"/>
          <path class="cls-1" d="M841.06,280.65c-1.57,1.83-3.2,3.72-4.71,5.68-.96,1.25-1.64,2.93-1.8,4.52-.11.97-.19,1.95-.25,2.92,1.3-.11,2.52-.28,3.67-.5.06-.68.12-1.36.19-2.02.1-.94.51-1.97,1.08-2.7,1.44-1.89,3.04-3.73,4.58-5.52.64-.74,1.28-1.49,1.91-2.23l.44-.51v-4.11l-.05-.41c-.4-1.74-.82-3.49-1.25-5.22-.9-3.73-1.83-7.58-2.59-11.4-.47-2.37-1.04-4.66-1.66-6.9h-.05v-.07s0,.07,0,.07h.05c-.03-.12-.07-.24-.1-.36v-.05s-.02-.03-.02-.05l-.09-.57c-.85-5.24-1.77-8.6-3.76-10.42,0,0,0,0,0,0-.47-.42-.99-.76-1.59-1.02-.88-.4-1.94-.61-3.17-.65,3.04,6.3,5.32,13.17,6.83,20.74.78,3.88,1.72,7.76,2.63,11.53.4,1.66.8,3.33,1.19,4.99v2.56c-.48.58-.98,1.15-1.47,1.71Z"/>
          <path class="cls-1" d="M26.99,222.07c.04-6.73.07-13.58.11-20.46-1.43,2.69-2.68,5.6-3.68,8.77-.02,3.91-.04,7.81-.06,11.66-.04,5.32-.07,10.63-.1,15.95v.08c.86,1.15,1.74,2.29,2.63,3.39,1.02-1.03,1.02-2.53,1.01-3.23v-.23c.02-5.32.06-10.63.1-15.94Z"/>
          <path class="cls-1" d="M65.27,302.72c20.52,0,41.22-9.23,55.05-29.77.1-.13.21-.27.29-.41l-1.43-.55c-10.96,15.64-28.39,23.36-45.82,23.36-20.93,0-41.84-11.14-51.68-33.62-2-4.55-3.55-9.57-4.54-15.06-.73-4-1.14-8.24-1.26-12.73-.02-.55-.02-1.11-.02-1.67v-.53c0-8.27,1.13-15.58,3.1-22,1.21-3.9,2.73-7.46,4.52-10.71.19-.36.39-.73.59-1.08.94-1.64,1.97-3.2,3.05-4.66,9.99-13.52,25.21-19.78,39.59-19.78,20.07,0,38.4,12.34,37.9,34.22-.04,1.43-.15,2.91-.35,4.42l.11-.48,5.55-25.29.1-.46c-13.48-10.25-28.92-15.09-44.03-15.09-14.01,0-27.64,4.19-38.86,11.98-1.24.87-2.45,1.79-3.63,2.74h0C9.24,197.03-.31,214.81-.31,237.49v.25c.1,26.08,13.42,45.43,31.72,55.96,2.97,1.71,6.06,3.19,9.24,4.42,7.81,3.02,16.18,4.59,24.62,4.59Z"/>
          <path class="cls-1" d="M62.44,129.32h4.77c4.77-5.62,9.53-11.24,14.32-16.84.65-.76,1.51-1.94,1.39-3.39-.12-1.43-1.11-2.4-1.84-3.02-.63-.52-1.21-1.13-1.83-1.77-.44-.45-.86-.9-1.3-1.31-1.89-1.82-1.95-3.08-1.47-4.41.59-1.59,1.74-2.29,3.97-2.42,1.39-.08,3.11-.29,5.11-.53,4.99-.59,11.95-1.42,19.42-.93.19.08.41.15.68.13.33-.01.63,0,.94-.01,1.7.16,3.42.38,5.14.7l.04-.17c7.15,1.49,13.32,5.89,19.16,10.42,4.02,3.14,7.46,5.57,11.13,8.98,7.75,7.19,14.64,15.36,20.86,23.89,8.54,11.71,15.9,24.39,21.31,37.86,4.87,12.11,8.18,24.9,9.13,37.92.22,2.92.31,5.86.29,8.79-.02,2.02-.13,4.05-.28,6.06l-2.77-8.73-15.54-48.81h-.9l-28.43,90.65c.61-.52,1.24-1.02,1.9-1.48l.47-1.48h.06l.48-1.62h-.01l.53-1.7h0s19.05-61.02,19.05-61.02l13.61,44.83,4.88,16.08c-3.78-.13-7.58-.06-11.36.29-.33.04-.65.06-.98.11-2.4.24-4.86.58-7.32,1.07h-.01c-.55.11-1.1.22-1.66.34h-.01c-1.97.44-3.94.97-5.85,1.62-4.65,1.57-9.02,3.85-12.55,7.16-.62.58-1.19,1.2-1.73,1.85-2.19,2.63-3.69,5.81-3.72,9.3-.01,1.04.12,2.05.36,3.03.58,2.36,1.85,4.49,3.55,6.26.57.58,1.17,1.15,1.83,1.65.25.19.52.39.79.57.05.02.08.06.13.08.16.11.34.21.51.31.24.16.48.29.74.42.19.11.4.22.59.3.01.01.02.02.04.02.15.07.29.15.45.21.21.11.42.19.65.29.71.29,1.45.53,2.2.73.23.06.46.11.69.16.16.04.31.07.46.1.22.05.45.08.67.12.04,0,.06.01.08.01.16.04.34.06.51.07.02.01.04.01.06.01.04,0,.06.01.1.01.25.02.51.05.75.07.24.02.48.04.73.05.25.01.5.02.74.02.79.01,1.57-.01,2.37-.08.31-.02.63-.06.94-.1.08-.01.16-.02.24-.04.21-.02.41-.05.62-.08.15-.02.28-.06.42-.08.15-.02.28-.05.41-.07.13-.02.27-.05.4-.08.22-.05.44-.1.64-.15.65-.16,1.31-.35,1.94-.57.02-.01.05-.01.07-.02.36-.12.71-.25,1.07-.4.51-.19,1.01-.4,1.49-.64.29-.13.58-.28.86-.42h.01c.56-.3,1.1-.61,1.62-.96.53-.33,1.04-.69,1.54-1.07,3.88-2.97,6.4-7.56,8.85-11.69.52-.87,1.02-1.76,1.51-2.64.93-1.67,1.83-3.38,2.68-5.1.88-1.79,1.73-3.61,2.52-5.45.06-.13.11-.28.17-.41,7.51,22.33,19.6,36.87,33.38,45.83,13.78,8.95,29.25,12.32,43.52,12.32,9.16,0,17.78-1.44,25.16-3.6l-.18-.9c-4.68,1.26-10.43,2.16-16.71,2.16-23.13,0-53.9-11.8-70.14-57.02.99.18,2,.36,2.98.57.74.16,1.47.33,2.2.5,9.79,2.19,19.32,5.32,28.84,8.45,1.5.5,2.99.98,4.49,1.48v10.63c0,14.73-5.39,16.35-13.48,17.43h41.34c-7.91-1.08-13.48-2.7-13.48-17.43v-6.17c1.49.42,2.99.84,4.49,1.24,3.82,1.01,7.67,1.9,11.57,2.63,2.74.51,5.51.9,8.3,1.16,1.79.17,3.59.28,5.39.34,1.07,1.84,2.17,3.78,3.32,5.83,14.2,25.34,39.53,33.07,62.35,33.07,10.42,0,20.3-1.62,28.39-3.96l-.18-.71c-4.68,1.26-10.42,2.16-16.88,2.16-18.52,0-41.69-7.36-58.22-33.07-1.02-1.59-2-3.1-2.99-4.55.11-.02.22-.04.33-.06,1.45-.3,2.88-.69,4.3-1.13,3.69-1.13,7.23-2.65,10.56-4.54,3.33-1.89,6.48-4.14,9.41-6.71,5.67-4.97,10.26-11.06,13.02-18.1,2.93-7.47,3.54-15.7,2.58-23.63-.57-4.7-1.61-9.3-2.98-13.83-.07-.25-.21-.46-.35-.62l1.34-.41-.29-.97-6.61-33.91-.67-3.45.05-1.21c1.64-2.31,2.4-5.16,1.95-7.99l1.42-.44-.41-1.36-.34-1.08-.48-1.6-1.45.45c-2.41-4.94-8.35-7.47-13.86-5.78-5.52,1.7-9.01,7.11-8.24,12.56l-1.45.44.48,1.61.34,1.08.41,1.34,1.42-.44c1.21,2.6,3.44,4.54,6.1,5.54l.71.97,1.38,3.23,13.55,31.78.3.97,1.5-.46.3.67h0c2.65,8.78,4.2,18.17,2.68,27.3-1.25,7.53-4.58,14.52-9.6,20.28-5.86,6.7-13.52,12.12-21.98,14.93-.85.28-1.72.53-2.58.78-1.56.42-3.15.79-4.74,1.09h-.01c-3.34-4.6-6.78-8.42-10.95-11.28-4.15-2.85-9.04-4.76-15.25-5.55,52.83-6.47,50.5-86.97-7.01-86.8h-38.27c8.09,1.08,13.48,2.7,13.48,17.44v77.03c-1.5-.48-2.99-.98-4.49-1.47-9.45-3.09-18.91-6.14-28.62-8.27-.48-.11-.97-.19-1.45-.3-1.67-.35-3.37-.67-5.06-.96-.27-.81-.55-1.6-.8-2.42l-5.98-18.8c.01-.07.02-.16.04-.24.53-3.85.82-7.73.91-11.6.02-.81.02-1.62.02-2.43,0-12.05-2.01-24.07-5.6-35.59-4.58-14.73-11.56-28.67-20-41.54-6.66-10.15-14.23-19.8-22.75-28.46-2.65-2.71-5.4-5.35-8.38-7.72-2.91-2.29-5.87-4.53-8.81-6.78-3.74-2.86-7.63-5.63-11.94-7.57-2.22-.99-4.51-1.74-6.86-2.2l.07-.39c-10.44-1.93-20.55-.73-27.25.07-1.94.23-3.62.44-4.91.51-3.66.22-6.06,1.83-7.16,4.81-1.1,2.99-.33,5.7,2.36,8.28.4.39.79.79,1.17,1.2.67.68,1.34,1.39,2.13,2.03.31.28.46.45.52.53-.05.1-.17.33-.51.71-5.45,6.4-10.89,12.8-16.33,19.21ZM184.42,264.01c-.81,1.77-1.67,3.52-2.58,5.26-.88,1.68-1.79,3.36-2.77,4.99-2.45,4.11-4.94,8.82-9.02,11.51-3.08,2.02-6.77,3.19-10.48,3.42-.9.06-1.79.06-2.68.01-4.19-.24-8.51-2.53-10.77-6.13-.02-.04-.05-.07-.07-.11-2.29-3.75-1.7-8.18.8-11.68.93-1.32,2.07-2.48,3.34-3.52,1.91-1.57,4.12-2.85,6.35-3.84.36-.17.74-.34,1.11-.5,4.75-1.93,9.88-3.12,14.97-3.79.11-.01.22-.04.33-.05.08-.01.18-.02.27-.04.42-.05.85-.08,1.27-.12,1.45-.16,2.91-.27,4.36-.34-1.45.07-2.91.19-4.36.34h11.91c-.62,1.54-1.28,3.08-1.97,4.59ZM320.01,155.8c4.63-1.42,9.61.64,11.74,4.66l-18.82,5.78c-.5-4.53,2.47-9.02,7.09-10.44ZM318.35,174.38c-1.73-.84-3.19-2.14-4.11-3.85l18.81-5.77c.19,1.91-.27,3.83-1.24,5.49l-13.47,4.13ZM329.84,191.42h0s2.01-.62,2.01-.62l-2.01.62ZM336.81,211.82c.46-.34,1.11-.44,1.65-.18-.53-.24-1.19-.16-1.65.18ZM256.48,190.95c0-13.3,2.7-15.09,10.07-15.09h.35c40.61,0,40.44,84.1,0,84.1h-10.42v-69ZM256.48,261.57h10.42c5.89,0,11.09,6.43,17.51,17.16h.01c.07.13.16.27.23.4-.08-.13-.17-.27-.24-.4-1.85-.11-3.71-.28-5.55-.51-.69-.08-1.37-.17-2.06-.28-5.34-.79-10.61-2-15.83-3.43-1.5-.41-3-.84-4.49-1.27v-11.68Z"/>
          <path class="cls-1" d="M56,132.51c-.33-.29-.7-.47-1.13-.57-.41-.08-.86-.13-1.31-.12-.46.01-.91.07-1.34.18-.42.1-.82.21-1.17.33-.98.38-1.9.85-2.75,1.43-.86.57-1.66,1.2-2.41,1.88-1.68,1.49-3.16,3.15-4.42,4.97-1.27,1.82-2.43,3.73-3.49,5.74-.23.4-.47.73-.71.98-.24.27-.62.39-1.1.39-.4-.02-.8-.1-1.19-.24-.38-.15-.73-.33-1.03-.56-.75-.47-1.36-1.08-1.8-1.82-.46-.74-.73-1.55-.8-2.43-.07-.85.04-1.72.31-2.62.29-.91.7-1.73,1.25-2.5.56-.76,1.21-1.4,1.97-1.91.76-.52,1.59-.84,2.47-.96.25-.04.52-.06.79-.06s.53.04.8.13c.21.07.41.18.61.31.21.15.41.22.62.22.22.02.38-.01.47-.1.11-.07.17-.18.19-.31.02-.12.01-.27-.05-.41-.06-.16-.15-.29-.27-.41-.88-.38-1.78-.51-2.66-.42-.9.1-1.67.28-2.33.53-.84.33-1.66.75-2.46,1.26-.79.52-1.51,1.11-2.16,1.78-.64.67-1.19,1.4-1.61,2.23-.44.82-.7,1.7-.8,2.63-.06.99.06,1.96.38,2.94.31.97.85,1.78,1.6,2.43.81.68,1.73,1.11,2.75,1.3,1.03.19,2.05.3,3.08.31-.61,1.2-1.24,2.33-1.88,3.38-.64,1.05-1.34,2.13-2.1,3.23-.11.18-.23.39-.35.59-.11.21-.3.34-.56.39-.23.05-.47.01-.71-.11-.25-.11-.48-.19-.69-.24-.61-.19-1.22-.34-1.87-.46-.63-.11-1.25-.16-1.85-.13-.9.02-1.83.15-2.81.36-.99.22-1.82.68-2.5,1.36-.4.4-.58.79-.57,1.17.02.39.17.74.42,1.07.27.33.59.62.98.86.4.25.78.44,1.13.55.52.17,1.05.27,1.6.28.56.02,1.1.01,1.64-.05.55-.06,1.07-.15,1.6-.28.52-.13,1.04-.27,1.53-.4.58-.15,1.13-.33,1.61-.57.24-.11.46-.23.68-.35.21-.11.44-.17.7-.17.41.02.82.16,1.22.4.4.24.8.42,1.2.54.3.1.65.22.99.31.19.07.38.13.58.19.57.18,1.13.33,1.71.44.57.12,1.14.19,1.7.23h.05c.54.04,1.09-.01,1.61-.12.3-.07.63-.16.99-.27.36-.1.71-.24,1.05-.4.34-.17.64-.38.9-.62.27-.24.46-.54.61-.9.08-.11.13-.24.13-.36,0-.13-.08-.22-.28-.27-.21-.05-.39.02-.52.21-.15.19-.28.33-.39.42-.33.28-.71.44-1.16.46s-.87.01-1.3-.04c-.01,0-.02,0-.04-.01-.59-.08-1.16-.23-1.71-.41-.55-.18-1.1-.39-1.67-.59-.13-.05-.27-.1-.41-.15-.39-.15-.79-.28-1.16-.42-.52-.18-1.04-.38-1.59-.59.8-.51,1.47-1.15,2.01-1.91.53-.76,1.03-1.56,1.47-2.4.45-.85.9-1.67,1.34-2.48.44-.81.97-1.51,1.57-2.12.38-.38.82-.63,1.36-.76.52-.12,1.02-.28,1.49-.47,2.11-.82,4.08-1.96,5.92-3.44l.02-.02c1.83-1.48,3.39-3.09,4.7-4.86.28-.38.59-.85.93-1.43.16-.28.31-.57.45-.87.15-.3.27-.62.38-.93.21-.63.29-1.25.27-1.84-.04-.61-.28-1.11-.73-1.53ZM27.77,159.42c-.71.3-1.47.48-2.26.55-.25.02-.52.04-.79.04s-.55-.02-.81-.07c-.27-.04-.51-.13-.73-.25-.21-.13-.35-.33-.45-.58-.12-.3-.12-.58-.02-.82.11-.25.27-.45.47-.61.22-.15.46-.27.74-.36.29-.1.54-.16.78-.21.87-.12,1.73-.06,2.58.19.86.24,1.66.53,2.41.88-.56.54-1.2.96-1.91,1.25ZM54.32,135.24c-.22.48-.44.91-.64,1.26-.62,1.13-1.31,2.17-2.07,3.11-.78.94-1.61,1.83-2.5,2.65-.55.46-1.08.93-1.62,1.4-.53.46-1.11.9-1.72,1.3-.48.4-1.03.73-1.61.98-.59.27-1.19.51-1.79.74.82-1.4,1.62-2.79,2.41-4.15.78-1.38,1.61-2.74,2.51-4.09.3-.45.63-.92.97-1.43.34-.5.69-.99,1.07-1.48.38-.47.78-.91,1.2-1.3.42-.39.88-.7,1.41-.97.21-.08.45-.17.71-.24.27-.07.53-.1.78-.08s.47.08.69.23c.21.13.35.35.41.63.1.47.04.94-.19,1.44Z"/>
          <path class="cls-1" d="M54.4,146.37c-.67.25-1.31.58-1.91.98-.51.3-.98.64-1.44.99,0,0,0,0,0,0-.69.51-1.34,1.06-1.93,1.68-.98,1.03-1.82,2.2-2.49,3.51,0,0,0,.02-.01.03,0,0,0,0,.01-.01,0,0,0,0,0,.01-.25.46-.5.94-.71,1.47s-.4,1.07-.52,1.64c-.13.56-.19,1.13-.18,1.68.01.56.15,1.09.38,1.57.28.57.65.98,1.14,1.24.48.25.99.4,1.55.42.55.02,1.1-.05,1.68-.19.57-.16,1.08-.36,1.53-.62.3-.16.69-.44,1.17-.81.48-.38,1.01-.8,1.56-1.3.57-.5,1.13-1.03,1.71-1.61.45-.47.86-.92,1.26-1.37.08-.16.15-.3.23-.48.44-.84,1.02-1.87,1.72-3.06-.28.3-.65.75-1.13,1.33-.46.58-.99,1.21-1.57,1.88-.58.67-1.21,1.32-1.88,1.96-.67.65-1.33,1.17-1.99,1.56-.28.19-.63.38-1.05.57-.42.18-.84.3-1.25.35-.41.05-.76-.02-1.08-.19-.3-.18-.48-.53-.56-1.08-.05-.39-.02-.8.05-1.21.08-.4.21-.8.38-1.17.12-.25.23-.57.33-.94.11-.38.25-.65.45-.85.16-.18.41-.29.74-.31.33-.02.61-.06.84-.1.42-.12.82-.24,1.21-.38.39-.12.78-.28,1.17-.44.73-.33,1.45-.71,2.17-1.16.71-.45,1.34-.97,1.91-1.57.23-.24.46-.51.68-.81.23-.3.41-.63.55-.98.15-.35.23-.71.25-1.08.02-.36-.07-.7-.29-1.03-.25-.45-.64-.69-1.15-.74-.52-.05-1.01-.02-1.44.07-.7.11-1.39.3-2.06.56ZM56.81,147.22c.02.3-.06.64-.25,1.03-.18.39-.35.71-.48.97-.22.33-.45.64-.73.93-.27.29-.56.57-.86.82-.61.53-1.25,1.04-1.91,1.51-.67.46-1.4.73-2.23.78.52-.82,1.05-1.62,1.6-2.41.56-.79,1.16-1.53,1.84-2.23.05-.05.16-.16.33-.34.16-.17.35-.35.56-.55.21-.18.44-.36.68-.54.25-.17.48-.3.69-.39.21-.07.39-.1.52-.05.15.05.23.19.25.46Z"/>
          <path class="cls-1" d="M59.39,151.7c-.09.15-.17.29-.26.43-.71,1.2-1.29,2.23-1.73,3.08-.09.17-.15.32-.23.48-.35.73-.63,1.38-.77,1.91-.18.64-.25,1.26-.23,1.84.09.82.45,1.41,1.07,1.76.62.35,1.32.47,2.09.35.8-.26,1.59-.66,2.39-1.19.8-.54,1.57-1.15,2.32-1.83.75-.68,1.45-1.41,2.11-2.18.66-.77,1.24-1.51,1.76-2.21.52-.7.94-1.34,1.28-1.91.34-.57.56-1.01.65-1.32-.05-.12-.12-.18-.21-.18-.02.02-.05.06-.07.11s-.06.09-.11.14c-.19.26-.46.64-.83,1.14s-.78,1.06-1.26,1.67c-.48.61-.98,1.24-1.51,1.88-.53.64-1.05,1.25-1.56,1.81-.52.56-1,1.04-1.44,1.44-.44.4-.83.66-1.16.77-.54.19-1,.17-1.39-.05s-.5-.64-.33-1.25c.3-1.03.77-2.17,1.39-3.41.62-1.24,1.31-2.52,2.07-3.85.76-1.32,1.56-2.63,2.39-3.93.83-1.3,1.62-2.51,2.37-3.63h2.99v-1.23h-2.32c.73-1.05,1.34-1.98,1.84-2.79s.91-1.5,1.23-2.09c.32-.59.56-1.09.72-1.51.16-.42.28-.77.35-1.05.05-.09-.13-.16-.53-.21-.4-.05-.84-.07-1.34-.07-.44,0-.87.02-1.26.07s-.68.12-.84.21c-.09.09-.18.22-.25.39-.07.16-.13.32-.18.46,0,.05-.01.09-.03.12-.02.03-.04.08-.04.12-.14.54-.37,1.12-.7,1.74-.33.62-.64,1.21-.95,1.77v-.04l-.39.7-1.51,2.18h-2.99v1.23h2.35l-1.83,2.95c-1.26,2.06-2.31,3.79-3.14,5.18Z"/>
          <path class="cls-1" d="M76.02,139.74c-.35.19-.61.32-.77.39-.21.07-.39.11-.54.11s-.25.07-.3.21c0,.07.04.16.11.28.05,0,.11.01.18.04.19.07.46.05.81-.05s.69-.28,1.02-.51c.82-.51,1.43-.99,1.83-1.44.4-.44.69-1.03.88-1.76.12-.44.06-.86-.18-1.25-.23-.39-.54-.63-.91-.72-.49-.14-.99-.05-1.49.28-.5.33-.83.75-.97,1.26-.12.42-.07.8.14,1.12s.46.61.74.84c.14.12.19.29.14.53-.09.26-.32.48-.67.67Z"/>
          <path class="cls-1" d="M80.71,149.38c.13-.64.29-1.23.47-1.77l.35-.53c.12-.19.22-.37.32-.54.09-.18.15-.36.18-.54l-.07-.07c-.12,0-.24,0-.37-.02-.13-.01-.25-.02-.37-.02v.03c-.31-.02-.6-.03-.9-.03s-.57.03-.83.09c-.26.06-.5.16-.74.3-.23.14-.44.34-.63.6-.4.47-.79.95-1.18,1.46-.39.5-.78,1.02-1.18,1.56-.63.84-1.3,1.7-2,2.58-.7.88-1.43,1.74-2.18,2.58-.75.84-1.54,1.64-2.37,2.39-.83.75-1.69,1.41-2.58,1.97l-.39.25c-.21.09-.41.2-.6.33-.19.13-.32.31-.39.54-.07.31-.04.53.09.68.13.15.32.19.58.12.23-.05.45-.13.65-.26.2-.13.39-.26.58-.4,1.55-1.31,2.97-2.73,4.29-4.27,1.31-1.53,2.6-3.08,3.86-4.65.37-.47.74-.92,1.09-1.35.35-.43.73-.87,1.12-1.32-.33,1.62-.73,3.26-1.21,4.92-.48,1.66-1.13,3.23-1.95,4.71-.09.12-.22.27-.39.46-.16.19-.35.37-.54.56-.2.19-.4.35-.62.49-.21.14-.41.21-.6.21-.26.05-.46-.07-.62-.35-.15-.28-.23-.55-.23-.81,0-.14.01-.25.04-.32.05-.19.07-.37.07-.55s-.07-.31-.21-.4c-.21-.12-.46-.12-.76,0-.29.12-.51.23-.65.35-.21.19-.36.39-.46.6-.09.21-.14.42-.14.63,0,.33.11.64.33.95.22.31.51.54.86.7.51.21,1.08.32,1.69.32.47,0,.92-.05,1.37-.16.44-.11.87-.25,1.26-.44.98-.44,1.79-1.02,2.41-1.74.62-.71,1.13-1.5,1.53-2.37.4-.87.71-1.78.95-2.74.23-.96.46-1.93.67-2.92v.04c.12-.59.24-1.2.37-1.84Z"/>
        </g>
      </g>
    </g>
  </g>
</svg>